<?xml version="1.0" ?><!-- Uploaded to: SVG Repo, www.svgrepo.com, Generator: SVG Repo Mixer Tools -->
<svg fill="#000000" width="800px" height="800px" viewBox="0 0 64 64" data-name="Layer 1" id="Layer_1" xmlns="http://www.w3.org/2000/svg"><title/><path d="M53.94,54.93H10.06a2,2,0,0,1-2-2V30.6a2,2,0,0,1,2-2H53.94a2,2,0,0,1,2,2V52.93A2,2,0,0,1,53.94,54.93Zm-41.88-4H51.94V32.6H12.06Z"/><path d="M49.94,32.6H14.06a2,2,0,0,1-2-2V19.83a2,2,0,0,1,2-2H49.94a2,2,0,0,1,2,2V30.6A2,2,0,0,1,49.94,32.6Zm-33.88-4H47.94V21.83H16.06Z"/><path d="M45.6,21.83H18.4a2,2,0,0,1-2-2V11.06a2,2,0,0,1,2-2H45.6a2,2,0,0,1,2,2v8.77A2,2,0,0,1,45.6,21.83Zm-25.2-4H43.6V13.06H20.4Z"/></svg>